<?xml version="1.0" standalone="no"?>
<!DOCTYPE svg PUBLIC "-//W3C//DTD SVG 20010904//EN"
 "http://www.w3.org/TR/2001/REC-SVG-20010904/DTD/svg10.dtd">
<svg version="1.0" xmlns="http://www.w3.org/2000/svg"
 width="512.000000pt" height="512.000000pt" viewBox="0 0 512.000000 512.000000"
 preserveAspectRatio="xMidYMid meet">

<g transform="translate(0.000000,512.000000) scale(0.100000,-0.100000)"
fill="#000000" stroke="none">
<path d="M1790 4040 c-17 -17 -20 -33 -20 -115 0 -82 3 -98 20 -115 27 -27 66
-25 96 6 25 24 26 30 22 115 -3 81 -6 93 -27 110 -30 25 -66 24 -91 -1z"/>
<path d="M970 3700 c-35 -35 -26 -66 42 -136 67 -70 93 -83 130 -63 30 16 38
28 38 63 0 23 -14 44 -63 93 -71 70 -109 81 -147 43z"/>
<path d="M2553 3656 c-49 -50 -63 -72 -63 -95 0 -33 39 -71 72 -71 11 0 51 30
89 67 76 73 87 105 49 143 -39 39 -77 27 -147 -44z"/>
<path d="M1760 3649 c-197 -17 -354 -92 -501 -239 -83 -84 -101 -108 -147
-200 -73 -149 -86 -207 -86 -370 -1 -100 4 -153 18 -205 39 -145 112 -272 220
-380 l62 -61 -24 -54 c-50 -116 -68 -283 -42 -410 18 -87 91 -227 154 -297
101 -111 247 -190 393 -212 45 -7 274 -11 622 -11 l550 0 27 23 c31 27 35 68
9 97 -18 19 -34 20 -584 20 -451 0 -580 3 -633 15 -281 59 -460 325 -408 606
17 92 81 209 151 273 118 110 226 146 440 146 177 0 178 1 190 127 29 286 198
511 459 612 251 97 536 44 731 -137 151 -140 239 -326 239 -504 0 -39 5 -54
25 -73 23 -24 30 -25 148 -25 152 0 211 -11 302 -54 179 -84 295 -270 295
-470 -1 -175 -107 -356 -261 -444 -61 -35 -190 -72 -248 -72 -52 0 -81 -23
-81 -65 0 -25 7 -39 27 -55 25 -19 35 -21 98 -15 268 27 497 210 575 460 30
95 37 237 16 334 -47 222 -218 412 -436 485 -67 22 -110 30 -201 34 l-116 5
-17 84 c-33 168 -103 307 -214 425 -233 247 -577 337 -890 232 -40 -13 -74
-24 -76 -24 -1 0 -20 25 -40 55 -21 30 -71 85 -111 124 -174 165 -392 240
-635 220z m250 -156 c133 -32 277 -128 364 -243 l48 -64 -33 -25 c-19 -14 -70
-61 -115 -105 -126 -126 -204 -278 -234 -457 l-12 -66 -126 -6 c-198 -8 -337
-64 -455 -183 l-39 -39 -61 66 c-121 128 -176 258 -185 430 -6 135 14 231 72
344 52 100 102 163 175 219 184 141 380 183 601 129z"/>
<path d="M651 2897 c-37 -19 -48 -63 -24 -96 19 -24 26 -26 113 -29 112 -3
140 9 140 63 0 54 -35 75 -129 75 -42 0 -87 -6 -100 -13z"/>
<path d="M1029 2133 c-82 -76 -96 -117 -54 -158 38 -39 60 -32 136 42 57 55
69 72 69 98 0 40 -27 65 -69 65 -24 0 -44 -11 -82 -47z"/>
<path d="M3340 1328 c-25 -27 -26 -59 -1 -89 16 -21 28 -24 81 -24 53 0 65 3
81 24 25 30 24 66 -1 91 -30 30 -131 29 -160 -2z"/>
</g>
</svg>
